<?xml version="1.0" standalone="no"?>
<!DOCTYPE svg PUBLIC "-//W3C//DTD SVG 20010904//EN"
 "http://www.w3.org/TR/2001/REC-SVG-20010904/DTD/svg10.dtd">
<svg version="1.0" xmlns="http://www.w3.org/2000/svg"
 width="630.000000pt" height="630.000000pt" viewBox="0 0 630.000000 630.000000"
 preserveAspectRatio="xMidYMid meet">
<metadata>
Created by potrace 1.11, written by Peter Selinger 2001-2013
</metadata>
<g transform="translate(0.000000,630.000000) scale(0.100000,-0.100000)"
fill="#000000" stroke="none">
<path d="M3089 6296 c-2 -2 -40 -6 -84 -10 -109 -9 -165 -17 -350 -51 -74 -14
-275 -69 -378 -105 -383 -132 -726 -329 -1035 -595 -141 -121 -351 -341 -411
-428 -8 -12 -18 -24 -21 -27 -18 -14 -147 -202 -210 -307 -176 -290 -310 -628
-379 -953 -54 -253 -65 -374 -66 -675 0 -250 5 -325 36 -510 6 -33 13 -76 16
-95 9 -61 71 -296 104 -392 301 -894 983 -1605 1864 -1945 100 -38 329 -110
378 -118 18 -3 40 -8 49 -11 22 -6 55 -13 98 -20 19 -3 41 -7 49 -10 8 -2 37
-7 65 -10 28 -3 53 -7 56 -9 44 -27 699 -27 870 1 157 25 195 32 310 59 376
89 788 280 1100 509 53 39 182 143 244 196 93 79 266 262 375 395 41 50 123
166 120 169 -8 6 -816 571 -880 615 -37 25 -109 76 -162 113 -53 38 -99 68
-104 68 -4 -1 -26 -27 -48 -58 -51 -72 -252 -276 -325 -329 -169 -122 -275
-182 -426 -241 -99 -39 -262 -85 -336 -96 -21 -3 -53 -8 -70 -11 -162 -24
-383 -20 -538 10 -101 19 -147 31 -230 57 -142 46 -231 87 -390 179 -55 32
-209 151 -278 215 -256 237 -459 603 -517 934 -2 14 -10 57 -16 95 -24 135
-15 476 16 585 2 8 7 30 10 48 3 18 23 88 45 155 170 519 566 923 1085 1107
50 17 97 33 105 35 193 47 334 63 515 59 83 -2 159 -5 170 -7 11 -3 43 -8 70
-11 70 -10 197 -42 280 -72 39 -14 79 -29 90 -32 70 -20 337 -172 410 -233 11
-9 53 -45 93 -80 l74 -62 -248 -248 -247 -247 51 -59 c27 -32 76 -99 109 -149
45 -70 62 -89 73 -82 14 7 142 67 295 138 33 15 129 60 214 99 268 126 305
143 366 171 120 55 192 89 307 144 65 31 120 56 122 56 2 0 59 26 127 59 68
32 149 70 179 84 30 14 91 42 135 63 44 21 82 38 85 39 14 2 50 27 50 34 0 17
-138 263 -208 371 -152 235 -316 424 -547 636 -88 80 -110 97 -270 212 -305
219 -645 380 -1010 477 -49 13 -103 26 -120 29 -16 3 -45 10 -63 15 -18 5 -33
10 -35 9 -3 0 -96 13 -121 18 -10 2 -44 6 -75 9 -31 4 -67 9 -81 12 -29 6
-525 15 -531 9z"/>
</g>
</svg>
